<svg width="65" height="53" viewBox="0 0 65 53" fill="none" xmlns="http://www.w3.org/2000/svg">
<path fill-rule="evenodd" clip-rule="evenodd" d="M32.9513 5.22629C18.1265 5.22629 6.12884 17.1868 6.12884 31.9161V47.2628H9.73448C11.1777 47.2628 12.3476 48.4327 12.3476 49.8759C12.3476 51.3191 11.1777 52.4891 9.73448 52.4891H5.17404C2.81496 52.4891 0.90255 50.5766 0.90255 48.2176V31.9161C0.90255 14.2782 15.2624 0 32.9513 0C50.6402 0 65 14.2782 65 31.9161V48.2176C65 50.5766 63.0876 52.4891 60.7285 52.4891H56.1681C54.7249 52.4891 53.5549 51.3191 53.5549 49.8759C53.5549 48.4327 54.7249 47.2628 56.1681 47.2628H59.7737V31.9161C59.7737 17.1868 47.776 5.22629 32.9513 5.22629Z" fill="#003BE5"/>
</svg>
