<svg width="52" height="36" viewBox="0 0 52 36" fill="none" xmlns="http://www.w3.org/2000/svg">
<path fill-rule="evenodd" clip-rule="evenodd" d="M12.2951 13.099C13.7383 13.099 14.9082 14.2689 14.9082 15.7121L14.9082 20.9384C14.9082 22.3816 13.7383 23.5516 12.2951 23.5516C10.8519 23.5516 9.68192 22.3816 9.68192 20.9384L9.68193 15.7121C9.68193 14.2689 10.8519 13.099 12.2951 13.099Z" fill="#00D5E2"/>
<path fill-rule="evenodd" clip-rule="evenodd" d="M39.6577 9.17927C41.1009 9.17927 42.2709 10.3492 42.2709 11.7924L42.2709 24.8581C42.2709 26.3013 41.1009 27.4713 39.6577 27.4713C38.2145 27.4713 37.0446 26.3013 37.0446 24.8581L37.0446 11.7924C37.0446 10.3492 38.2145 9.17927 39.6577 9.17927Z" fill="#00D5E2"/>
<path fill-rule="evenodd" clip-rule="evenodd" d="M30.5369 0.596542C31.9801 0.596542 33.15 1.76649 33.15 3.20969L33.15 32.6753C33.15 34.1185 31.9801 35.2885 30.5369 35.2885C29.0937 35.2885 27.9237 34.1185 27.9237 32.6753L27.9237 3.20969C27.9237 1.76649 29.0937 0.596543 30.5369 0.596542Z" fill="#00D5E2"/>
<path fill-rule="evenodd" clip-rule="evenodd" d="M21.416 5.32722C22.8592 5.32722 24.0291 6.49717 24.0291 7.94037L24.0291 27.9446C24.0291 29.3878 22.8592 30.5577 21.416 30.5577C19.9728 30.5577 18.8028 29.3878 18.8028 27.9446L18.8028 7.94037C18.8028 6.49717 19.9728 5.32722 21.416 5.32722Z" fill="#00D5E2"/>
<path fill-rule="evenodd" clip-rule="evenodd" d="M3.14909 7.21935C4.59229 7.21935 5.76224 8.3893 5.76224 9.8325L5.76224 26.8179C5.76224 28.2612 4.59229 29.4311 3.14909 29.4311C1.70589 29.4311 0.535944 28.2611 0.535944 26.8179L0.535944 9.8325C0.535944 8.3893 1.70589 7.21935 3.14909 7.21935Z" fill="#003BE5"/>
<path fill-rule="evenodd" clip-rule="evenodd" d="M48.7786 7.21935C50.2218 7.21935 51.3918 8.3893 51.3918 9.8325L51.3918 26.8179C51.3918 28.2612 50.2218 29.4311 48.7786 29.4311C47.3354 29.4311 46.1655 28.2611 46.1655 26.8179L46.1655 9.8325C46.1655 8.3893 47.3354 7.21935 48.7786 7.21935Z" fill="#003BE5"/>
</svg>
